<svg xmlns="http://www.w3.org/2000/svg" viewBox="0 0 115.71 105.4"><title>Asset 1</title><g id="Layer_2" data-name="Layer 2"><g id="Layer_1-2" data-name="Layer 1"><path d="M62.72,106.8a8.24,8.24,0,0,1-1.49-4.72,18.24,18.24,0,0,0-.62-3.41c-1.07-4-1.18-8.06-1.6-12.11-.22-2.15-.36-4.31-.49-6.46-.07-1,0-2.08,0-3.11S57.9,75.62,57,76c-3.67,1.66-7.31,3.42-11,4.95-8.17,3.36-16.38,6.6-24.6,9.85a2.64,2.64,0,0,1-1.81.11A1.68,1.68,0,0,1,19.05,88a4.84,4.84,0,0,1,1.19-.79c1.59-.83,3.19-1.65,4.8-2.43s3.44-1.7,5.2-2.45c3.79-1.61,7.63-3.09,11.4-4.73,4.7-2,9.33-4.2,14-6.24,1.19-.52,2.23-1,2.62-2.38a3,3,0,0,1,.78-1c.69-.71,1.24-.8,2-.16s1.61.57,2.59.09a63.18,63.18,0,0,1,7-3c4.19-1.45,8.43-2.75,12.67-4a55.69,55.69,0,0,1,5.72-1.3,4.88,4.88,0,0,1,2,.11,3.75,3.75,0,0,1,2.59,5.27c-.3.68-1,.86-1.39.22-.7-1.16-1.48-1.06-2.63-.71-5.73,1.73-11.54,3.24-17.24,5.07A87.72,87.72,0,0,0,64,73.07,1.73,1.73,0,0,0,62.91,75c.4,4.42.71,8.85,1.2,13.26.37,3.41,1,6.8,1.46,10.2.21,1.5.41,3,.56,4.52a4.18,4.18,0,0,1-.78,3.18,2,2,0,0,0-.23.66Z" transform="translate(-2.85 -1.4)"/><path d="M73.22,57.58a1.7,1.7,0,0,0,2.15-.27,7.74,7.74,0,0,0,2.54-3.58c1.2-3.72,2.4-7.45,3.33-11.25a17.44,17.44,0,0,0,.31-6.91,3.12,3.12,0,0,1,1.89-3A2.24,2.24,0,0,1,86,34.12c.15.4.28.8.42,1.22,1-.09,1.22-.85,1.4-1.5a17.2,17.2,0,0,1,4-6.72,5.32,5.32,0,0,1,1.61-1.22,3.14,3.14,0,0,1,4.53,2A23.08,23.08,0,0,1,99,37.42a6,6,0,0,1-.16.94,1.78,1.78,0,0,1-3.55-.16c-.17-1.22-.22-2.46-.31-3.69,0-.65.28-1.55-.61-1.72s-1.06.7-1.27,1.33c-.88,2.56-1.89,5.1-2.57,7.71s-1,5.25-1.48,7.88a4.31,4.31,0,0,1-1.56,2.75,1.7,1.7,0,0,1-2.18.24c-1-.62-1.48-.39-1.77.8a12.81,12.81,0,0,1-5.8,7.91,3.26,3.26,0,0,1-1.31.58,44.05,44.05,0,0,1-5.12.36,5.14,5.14,0,0,1-2.2-.86,3.4,3.4,0,0,0-2.17-.41c-2.54.27-4.86-.15-6.51-2.39a1.24,1.24,0,0,0-1-.49c-.26,0-.57.51-.65.84-1.13,4.27-4.17,6-7.75,5.56a1.94,1.94,0,0,0-2,.85,11.8,11.8,0,0,1-8.58,4.69c-.91.11-1.83.16-2.75.19a4.7,4.7,0,0,1-5.21-4.45,14.43,14.43,0,0,1,0-3.94,58.35,58.35,0,0,1,1.52-6.66c1.12-3.88,4-6.08,7.67-7.28a3.13,3.13,0,0,1,4.05,4c-1.07,3.59-2.05,7.23-4,10.49-.27.45-.61.85-.84,1.31a10.61,10.61,0,0,0-.49,1.37l.25.31a4.46,4.46,0,0,0,1.39-.27c2.73-1.45,4.5-3.56,4.42-6.84a17.32,17.32,0,0,1,1.82-7.52,7.14,7.14,0,0,1,3.89-3.73,5.65,5.65,0,0,1,2.1-.26c1.18,0,1.64-.55,1.28-1.66A91.61,91.61,0,0,1,51.4,17.56c0-3.59.34-7.19.63-10.77a7.08,7.08,0,0,1,2.11-4.73A1.61,1.61,0,0,1,56.67,2a5.75,5.75,0,0,1,1.81,2.89,48.82,48.82,0,0,1,1.93,11.44c.39,4.42.83,8.84,1.14,13.27A81.67,81.67,0,0,1,61,45.11a8.77,8.77,0,0,0,.32,4.25c.52,1.34.78,2.78,1.39,4.07a8.75,8.75,0,0,0,2,2.49,1.59,1.59,0,0,0,1.51.14,1.7,1.7,0,0,0,.45-1.44c-.93-5.68,0-11.14,1.92-16.48a14.4,14.4,0,0,1,4.06-5.72,3.29,3.29,0,0,1,4.38-.3,5.73,5.73,0,0,1,2.75,4.66,25.7,25.7,0,0,1-1.29,9c-.75,2.48-1.73,4.9-2.72,7.3A28.82,28.82,0,0,1,74,56C73.68,56.49,73.48,57,73.22,57.58ZM57.08,31.72a4,4,0,0,0,.47-2.87c-.18-3.27-.4-6.54-.61-9.8-.15-2.35-.29-4.71-.49-7a14,14,0,0,0-.56-2.15A3.15,3.15,0,0,0,55,12.43c.06,3.51.11,7,.3,10.53.12,2.11.45,4.21.75,6.3A3.29,3.29,0,0,0,57.08,31.72ZM70.61,50.63a2.17,2.17,0,0,0,1.71-1.82c1-3.36,2-6.73,2.94-10.11a2.85,2.85,0,0,0,.11-.82c0-.77-.63-1.11-1.22-.63a4.47,4.47,0,0,0-1,1.43C71.44,42,71,45.61,70.44,49.19A5.65,5.65,0,0,0,70.61,50.63ZM41.08,53.42a2.6,2.6,0,0,0-2.48,1.72c-.84,1.94-1.57,3.93-2.28,5.92a4.51,4.51,0,0,0,0,1.38,1.31,1.31,0,0,0,1.39-.92c1-2.13,2-4.26,3-6.41A9.59,9.59,0,0,0,41.08,53.42Zm11,3.85a1,1,0,0,0,1.25-.81,37.27,37.27,0,0,0,1.19-4A1.39,1.39,0,0,0,54,51.3c-.21-.15-.85.07-1.13.31A4.63,4.63,0,0,0,52.1,57.27Z" transform="translate(-2.85 -1.4)"/><path d="M25.15,38.91a11.4,11.4,0,0,0-.6,1.85c-.44,2.89-.82,5.78-1.21,8.67a46.72,46.72,0,0,1-3.05,11.93,13.71,13.71,0,0,1-3.14,4.77,3.52,3.52,0,0,1-5.46-.36,6.77,6.77,0,0,1-1.5-3.86c-.25-3.27-.45-6.54-.52-9.81C9.54,46,9.53,39.87,9.44,33.75a10.52,10.52,0,0,0-.31-1.64l-.44,0a5.07,5.07,0,0,0-.43,1.22c-.2,2.27-.39,4.54-.51,6.81-.2,3.59-.47,7.19-.47,10.78,0,4.68.18,9.35.34,14,.09,2.92.29,5.83.44,8.75a3.7,3.7,0,0,1-1.18,2.66.84.84,0,0,1-1.44-.08,7.14,7.14,0,0,1-1.28-2.63A133.53,133.53,0,0,1,2.85,55.21c0-5.19.42-10.38.69-15.57a136.27,136.27,0,0,1,2.8-20.91A9.41,9.41,0,0,1,8.1,14.45c1.18-1.42,2.61-1.67,3.72-.57a2.86,2.86,0,0,1,.82,1.65c.63,8.46,1.27,16.91,1.74,25.37.2,3.55,0,7.11,0,10.67,0,2.32-.05,4.64,0,7a3.17,3.17,0,0,0,.5,1.1c.37-.24,1-.4,1.08-.73a36.29,36.29,0,0,0,1-3.57c1.82-7.3,2.75-14.77,3.92-22.19.66-4.18.84-8.43,1.26-12.65.26-2.58.55-5.17.86-7.75a4.86,4.86,0,0,1,1.29-3,2.16,2.16,0,0,1,3.12-.23,3.79,3.79,0,0,1,1.58,3c.45,9.47,1.57,18.89,1.59,28.38,0,4.92.32,9.83.47,14.75,0,1.16,0,2.32,0,3.47,0,1.52.16,3,.24,4.54.06,1.08.11,2.16.17,3.23,0,.48,0,1,.09,1.44.26,2.26.52,4.52.81,6.77a7.22,7.22,0,0,0,.43,1.85c.58,1.39.56,1.78-.39,2.65a2.58,2.58,0,0,1-3.18.46,3.63,3.63,0,0,1-1.83-2.94c-.21-2.15-.4-4.3-.53-6.45-.39-6.59-.81-13.17-1.08-19.76-.12-3.19.1-6.4.12-9.6A19.62,19.62,0,0,0,25.7,39Z" transform="translate(-2.85 -1.4)"/><path d="M100.08,89.34a6.82,6.82,0,0,0-1.12.35,4.24,4.24,0,0,1-5.37-.91c-.16-.18-.28-.4-.44-.57-.62-.64-1.14-.53-1.6.25-.78,1.3-1.53,2.62-2.41,3.86a5.46,5.46,0,0,1-3,2.3,2.52,2.52,0,0,1-3-1.07,6.32,6.32,0,0,1-1.28-3.31c-.23-2.88-.57-5.75.56-8.53a13.42,13.42,0,0,1,3-4.61c1.46-1.44,5-2.27,6.9-.33A4.29,4.29,0,0,1,93.69,80a4.2,4.2,0,0,0,.88,2.67,10.86,10.86,0,0,1,.89,1.56c.25.5.56.9,1.18.81s.73-.67.77-1.19a79.8,79.8,0,0,0,.29-14c-.53-5.81-.8-11.64-1.18-17.47a3.2,3.2,0,0,1,2-3,2.48,2.48,0,0,1,1.67.22A3.48,3.48,0,0,1,101.9,52c.58,3,1.24,6,1.73,9.07.52,3.24.93,6.49,1.29,9.75.16,1.46,0,3,.14,4.42a4.58,4.58,0,0,0,.43,1.24c.41-.19,1-.28,1.2-.6a16.42,16.42,0,0,1,5.66-4.54,3.65,3.65,0,0,1,4.76.86c2,2.13,1.52,4.61.89,7-1.2,4.51-4.36,7.64-8,10.34a18.82,18.82,0,0,1-3.31,2.16,12.73,12.73,0,0,1-3.64,1,2.53,2.53,0,0,1-2.8-2.37C100.23,90.1,100.18,89.83,100.08,89.34ZM85.2,87a2.4,2.4,0,0,0,0,.71,1.56,1.56,0,0,0,.5.83c.18.09.57-.15.82-.31a1.31,1.31,0,0,0,.36-.47c.84-1.4,1.7-2.79,2.48-4.22a8.38,8.38,0,0,0,.75-2,1.62,1.62,0,0,0-.78-1.95c-.63-.34-1.32,0-1.88.83A12.6,12.6,0,0,0,85.2,87Zm21.1-1.18a7.19,7.19,0,0,0,1.75-1q2.33-2.66,4.49-5.44a5.5,5.5,0,0,0,.53-1.73C111.23,77.56,106.35,83.45,106.3,85.86ZM101,88.23a4,4,0,0,0,1.3-.17c.36-.19.79-.55.85-.89s-.4-.74-.73-.89a.89.89,0,0,0-1.24.58A6.43,6.43,0,0,0,101,88.23Z" transform="translate(-2.85 -1.4)"/><path d="M80.13,88.59c-.08,1.67-.17,3.34-.22,5A10.1,10.1,0,0,0,80,95.15a2,2,0,0,1-1.18,2.14c-.69.28-1.42,0-2-.92a5.86,5.86,0,0,1-.49-1.08c-.38-1-.82-1.14-1.7-.41a3.93,3.93,0,0,1-2.62,1,3.54,3.54,0,0,1-3.68-3.35,23.46,23.46,0,0,1,1-9c.9-3,3-4.53,5.9-4.43a4.12,4.12,0,0,1,4.1,3.34,29,29,0,0,1,.46,3.06c.11,1,.13,2.08.19,3.11Zm-7.72,1.59A1.82,1.82,0,0,0,74,88.7c.38-1.34.73-2.68,1.08-4,.13-.49.39-1.15-.26-1.33-.36-.1-.88.33-1.3.58a.8.8,0,0,0-.3.5c-.36,1.63-.71,3.26-1,4.89C72.12,89.55,72.3,89.82,72.41,90.18Z" transform="translate(-2.85 -1.4)"/></g></g></svg>